<svg version="1.1"  xmlns="http://www.w3.org/2000/svg" xmlns:xlink="http://www.w3.org/1999/xlink" x="0px" y="0px" width="32" height="32" viewBox="0 0 48 48" enable-background="new 0 0 48 48" xml:space="preserve" viewbox="0 0 32 32">
<g>
	<rect x="26" y="10" width="4" height="8"></rect>
	<path d="M41.414,13.586l-7-7C34.039,6.211,33.53,6,33,6H11c-2.757,0-5,2.243-5,5v26c0,2.757,2.243,5,5,5h26c2.757,0,5-2.243,5-5V15
		C42,14.47,41.789,13.961,41.414,13.586z M32,18c0,1.104-0.896,2-2,2H18c-1.104,0-2-0.896-2-2V8h16V18z"></path>
</g>
</svg>