<?xml version="1.0" encoding="utf-8"?>
<!-- Generator: Adobe Illustrator 22.1.0, SVG Export Plug-In . SVG Version: 6.00 Build 0)  -->
<svg version="1.1" id="Layer_1" xmlns="http://www.w3.org/2000/svg" xmlns:xlink="http://www.w3.org/1999/xlink" x="0px" y="0px"
	 viewBox="0 0 32 32" style="enable-background:new 0 0 32 32;" xml:space="preserve">
<path id="_x32_68254830_x5F_shock_x5F_x5F_x5F_color_x5F_grid" style="fill:#FF9E45;" d="M24.4,25.3c0.5,0,0.8-0.4,0.8-0.8V7.6
	c0-0.5-0.4-0.8-0.8-0.8H6.7v18.5h3.4v-8.4h6.7v3.4h5.1v5.1H24.4z"/>
<path style="opacity:0.8;fill:#231F20;enable-background:new    ;" d="M1.7,25.3v-6.7H0v-5.1h1.7V6.7h20.2v1.7H6.7v13.5H5.1V8.4H3.4
	v6.7H1.7v1.7h1.7v6.7h20.2V6.7h0.8c0.5,0,0.8,0.4,0.8,0.8v16.8c0,0.5-0.4,0.8-0.8,0.8H1.7z M24.4,3.4H7.6C6.2,3.4,5,4,4.2,5.1h20.2
	c1.4,0,2.5,1.1,2.5,2.5v16.8c0,1.4-1.1,2.5-2.5,2.5H4.2c0.8,1,2,1.7,3.3,1.7h0.8v1.7h1.7v-1.7h11.8v1.7h1.7v-1.7h0.8
	c2.3,0,4.2-1.9,4.2-4.2V7.6C28.6,5.3,26.7,3.4,24.4,3.4z"/>
</svg>
