<svg version="1.1"  xmlns="http://www.w3.org/2000/svg" xmlns:xlink="http://www.w3.org/1999/xlink" x="0px" y="0px" width="32" height="32" viewBox="0 0 32 32" style="enable-background:new 0 0 32 32;" xml:space="preserve" preserveAspectRatio="none" viewbox="0 0 32 32">
<path d="M14.5,13.996c-0.543,0-0.984-0.449-0.984-1.004s0.44-1.005,0.984-1.005s0.984,0.45,0.984,1.005S15.043,13.996,14.5,13.996z
	 M10.48,17.057L9.125,12h-1.25L6.52,17.094L5.417,12L4.25,11.996L6.013,19h1.079L8.5,14.006L9.865,19h1.122l1.763-7.004L11.583,12
	L10.48,17.057z M31,12.9V18.1c0,2.154-1.889,3.9-4.219,3.9h-2.545c-1.923,2.434-4.895,4-8.236,4s-6.313-1.566-8.236-4H5.219
	C2.889,22,1,20.254,1,18.1V12.9C1,10.746,2.889,9,5.219,9h2.545C9.687,6.567,12.658,5,16,5s6.313,1.567,8.236,4H27.5
	c0.218,0,0.461,0.096,0.705,0.244C29.831,9.786,31,11.21,31,12.9z M22.905,22H14.5c1.5,0,2.5-1,2.5-2.5v-8C17,10,18,9,19.5,9h3.405
	C21.174,7.159,18.727,6,16,6c-3.195,0-6.015,1.583-7.737,4.001H5.15c-1.74,0-3.15,1.278-3.15,2.855v5.253
	c0,1.576,1.41,2.89,3.15,2.89h3.113C9.985,23.418,12.805,25,16,25C18.727,25,21.174,23.842,22.905,22z M25,12h-6v7h1v-3h4v-1h-4v-2
	h5V12z M28,15h-1v4h1V15z M28.484,12.992c0-0.555-0.44-1.005-0.984-1.005s-0.984,0.45-0.984,1.005s0.44,1.004,0.984,1.004
	S28.484,13.547,28.484,12.992z M15,15h-1v4h1V15z"></path>
</svg>