<svg version="1.1"  xmlns="http://www.w3.org/2000/svg" xmlns:xlink="http://www.w3.org/1999/xlink" x="0px" y="0px" width="32" height="32" viewBox="0 0 32 32" style="enable-background:new 0 0 32 32;" xml:space="preserve" viewbox="0 0 32 32">
<path d="M21,6V4.5C21,3.672,20.328,3,19.5,3h-8C10.671,3,10,3.672,10,4.5V6H5v1h21V6H21z M20,6h-9V4.5C11,4.224,11.224,4,11.5,4h8
	C19.776,4,20,4.224,20,4.5V6z M6.503,27.083C6.547,27.602,6.98,28,7.5,28h16c0.52,0,0.953-0.398,0.997-0.917L26,8H5L6.503,27.083z
	 M20,11h1v14h-1V11z M15,11h1v14h-1V11z M10,11h1v14h-1V11z"></path>
</svg>