<svg version="1.1"  xmlns="http://www.w3.org/2000/svg" xmlns:xlink="http://www.w3.org/1999/xlink" x="0px" y="0px" width="32" height="32" viewBox="0 0 40 40" enable-background="new 0 0 40 40" xml:space="preserve" viewbox="0 0 32 32">
<g id="Shape_5_xA0_Clipping_Path_1_">
	<g>
		<path d="M13,31v-2l-1.667,2H13z M29,31v-2l-1.666,2H29z M20.5,28c-0.829,0-1.5,0.672-1.5,1.5v2c0,0.828,0.671,1.5,1.5,1.5
			c0.828,0,1.5-0.672,1.5-1.5v-2C22,28.672,21.328,28,20.5,28z M6,2v36h28V2H6z M16,33h-1v2h-2v-2H9v-2l4-5h2v5h1V33z M24,31.5
			c0,1.933-1.566,3.5-3.5,3.5c-1.933,0-3.5-1.567-3.5-3.5v-2c0-1.933,1.567-3.5,3.5-3.5c1.934,0,3.5,1.567,3.5,3.5V31.5z M20,17.352
			l-4.661,4.662l-3.353-3.353L16.648,14L12.02,9.371l3.352-3.352L20,10.648l4.629-4.628l3.352,3.352L23.353,14l4.661,4.661
			l-3.353,3.353L20,17.352z M32,33h-1v2h-2v-2h-4v-2l4-5h2v5h1V33z"></path>
	</g>
</g>
</svg>