<svg xmlns="http://www.w3.org/2000/svg" xmlns:xlink="http://www.w3.org/1999/xlink" version="1.1"  x="0px" y="0px" width="32" height="32" viewBox="0 0 100 100" style="enable-background:new 0 0 100 100;" xml:space="preserve" viewbox="0 0 32 32">

<g id="271184630_base_grid">
	
		<linearGradient id="271184630_SVGID_1__grid" gradientUnits="userSpaceOnUse" x1="369.2637" y1="-335.7383" x2="362.2697" y2="-323.8696" gradientTransform="matrix(1 0 0 -1 -294 -250)">
		<stop offset="0" style="stop-color:#000000;stop-opacity:0"></stop>
		<stop offset="1" style="stop-color:#000000"></stop>
	</linearGradient>
	<polyline class="st1" points="44.088,90.575 89.578,63.868 100,69.977 55.645,96.942 44.088,90.575  " style="opacity:0.15;fill:url(#271184630_SVGID_1__grid);enable-background:new    ;;"></polyline>
	<path class="st3" d="M93.94,64.43l-0.011,3.28c0,0.59-0.39,1.18-1.17,1.63L52.94,92.37l-0.011,0.01c-1.569,0.9-4.12,0.9-5.699,0   c-0.011,0-0.011,0-0.011-0.01L7.13,69.34c-0.8-0.46-1.189-1.06-1.189-1.66l0.01-3.27c0-0.59,0.39-1.19,1.17-1.64l39.83-23.03   c1.569-0.91,4.13-0.91,5.71,0l40.08,23.03C93.54,63.23,93.94,63.83,93.94,64.43z" style="fill:#EAEAEA;;"></path>
	<path class="st6" d="M47.227,89.098L7.139,66.063c-0.795-0.456-1.191-1.056-1.189-1.655L5.94,67.682   c-0.003,0.6,0.395,1.199,1.188,1.655l40.088,23.036c0.003,0.002,0.007,0.003,0.01,0.005v-0.005V89.098z" style="opacity:0.1;;"></path>
	<path class="st2" d="M47.227,89.098v3.275v0.005c1.587,0.904,4.134,0.903,5.7-0.001l0.009-0.005v-3.271   C51.367,90.008,48.812,90.008,47.227,89.098z" style="opacity:0.12;;"></path>
	<path class="st7" d="M92.77,66.063L52.936,89.102v3.271l39.825-23.035c0.778-0.451,1.167-1.04,1.169-1.632l0.01-3.273   C93.938,65.022,93.548,65.611,92.77,66.063z" style="opacity:0.2;;"></path>
</g>
<g>
	<linearGradient id="271184630_SVGID_2__grid" gradientUnits="userSpaceOnUse" x1="68.5449" y1="81.7168" x2="54.0888" y2="57.1852">
		<stop offset="0" style="stop-color:#000000;stop-opacity:0"></stop>
		<stop offset="1" style="stop-color:#000000"></stop>
	</linearGradient>
	<polygon class="st4" points="64.893,56.099 36.546,72.597 59.614,85.929 59.614,85.929 87.983,69.522  " style="opacity:0.15;fill:url(#271184630_SVGID_2__grid);;"></polygon>
</g>
<g>
	<path class="st0" d="M69,61.496c0-5.798-8.507-10.5-19-10.5s-19,4.702-19,10.5v4C31,71.297,39.507,76,50,76s19-4.703,19-10.504   V61.496z" style="fill:#47475E;;"></path>
	<path class="st8" d="M69,62.496v3C69,71.299,60.49,76,50,76s-19-4.701-19-10.504v-3C31,68.297,39.51,73,50,73S69,68.297,69,62.496z   " style="fill-opacity:0.25;;"></path>
</g>
<path class="st5" d="M55.861,43.997C62.357,41.748,67,35.891,67,28.994H33c0,6.897,4.643,12.754,11.139,15.003  C37.643,46.246,33,52.103,33,59h34C67,52.103,62.357,46.246,55.861,43.997z" style="fill:#C7DBEB;;"></path>
<g>
	<path class="stshockcolor" d="M64.61,29.99C62.48,26.5,56.74,24,50,24s-12.48,2.5-14.61,5.99c-0.529,0.86-0.83,1.78-0.88,2.74   c0.44,1.61,1.16,3.12,2.11,4.47c0.25,0.37,0.52,0.72,0.81,1.06c2.931,3.49,7.48,5.73,12.57,5.73s9.64-2.24,12.57-5.73   c0.229-0.28,0.46-0.57,0.67-0.86c1.02-1.41,1.79-2.98,2.25-4.67C65.44,31.77,65.14,30.85,64.61,29.99z" style="fill:#DDA10A;;" data-st="fill:#DDA10A;;"></path>
	<path class="st9" d="M65.49,32.73c-0.46,1.69-1.23,3.26-2.25,4.67c-0.21,0.29-0.44,0.58-0.67,0.86C59.76,40.53,55.18,42,50,42   s-9.76-1.47-12.57-3.74c-0.29-0.34-0.56-0.69-0.81-1.06c-0.95-1.35-1.67-2.86-2.11-4.47c0.05-0.96,0.351-1.88,0.88-2.74   C37.52,26.5,43.26,24,50,24s12.48,2.5,14.61,5.99C65.14,30.85,65.44,31.77,65.49,32.73z" style="opacity:0.4;fill:#FFFFFF;;"></path>
</g>
<g>
	<path class="st0" d="M69,22.5C69,16.702,60.493,12,50,12s-19,4.702-19,10.5v4C31,32.298,39.507,37,50,37s19-4.702,19-10.5V22.5z" style="fill:#47475E;;"></path>
	<path class="st8" d="M69,23.5v3C69,32.3,60.49,37,50,37s-19-4.7-19-10.5v-3C31,29.3,39.51,34,50,34S69,29.3,69,23.5z" style="fill-opacity:0.25;;"></path>
</g>
<g>
	<path class="stshockcolor" d="M67,58.491c0-1.38-14-11.498-17-11.498S33,57.11,33,58.491v3c0,3.499,7.611,8.499,17,8.499s17-5,17-8.499   V58.491z" style="fill:#DDA10A;;" data-st="fill:#DDA10A;;"></path>
	<path class="st9" d="M67,58.491c0-1.38-14-11.498-17-11.498S33,57.11,33,58.491c0,3.499,7.611,8.496,17,8.496S67,61.989,67,58.491z   " style="opacity:0.4;fill:#FFFFFF;;"></path>
</g>
</svg>