<?xml version="1.0" encoding="utf-8"?>
<!-- Generator: Adobe Illustrator 22.1.0, SVG Export Plug-In . SVG Version: 6.00 Build 0)  -->
<svg version="1.1" id="Layer_2_1_" xmlns="http://www.w3.org/2000/svg" xmlns:xlink="http://www.w3.org/1999/xlink" x="0px" y="0px"
	 viewBox="0 0 500 500" style="enable-background:new 0 0 500 500;" xml:space="preserve">
<g>
	
		<linearGradient id="SVGID_2_" gradientUnits="userSpaceOnUse" x1="257.3644" y1="408.3974" x2="273.2565" y2="150.5871" gradientTransform="matrix(-1 0 0 -1 486 502)">
		<stop  offset="0" style="stop-color:#E6C027"/>
		<stop  offset="1" style="stop-color:#B47711"/>
	</linearGradient>
	<path style="fill:url(#SVGID_2_);" d="M288.8,72.8l76.2,8.5c0,0,37.6,10.7,37.5,60.3c0,35.4-12.6,205.6-17,263.5l-0.9,13.1
		c0,0,0.1,1.3-0.3,3c-0.2,2.2-0.3,3.3-0.3,3.3s-0.3-0.1-0.7-0.3c-0.8,1.8-2.1,3.6-4.1,5c-0.1,0-0.1,0.1-0.2,0.1
		c-0.2,0.2-0.5,0.3-0.8,0.5c-0.3,0.2-0.7,0.4-1,0.5c-0.1,0.1-0.1,0.1-0.2,0.1c-0.9,0.4-1.6,0.5-1.6,0.5s-33.3-9.3-76.6-21.4
		L83,352.8L64.5,246.7c-5.2-26.3-10.2-53.5-13-73.8l-4-22.6c0,0,0-0.1,0-0.2s0-0.1,0-0.1c0-0.1,0-0.2,0-0.3s0-0.1,0-0.1
		c0-0.1,0-0.3,0-0.4l0,0c0-0.2,0-0.3,0-0.5c0-0.1,0-0.1,0-0.1c0-0.2,0-0.4,0-0.6l0,0c0.1-0.2,0.1-0.4,0.1-0.6l0,0
		c0-0.2,0.1-0.4,0.1-0.7l0,0c0-0.2,0.1-0.5,0.1-0.8l0,0c0.4-2.5,1.3-5.6,3.2-8.7c5.3-14.5,19.8-16.3,26.9-16.3
		c2.4,0,3.9,0.2,3.9,0.2s0.9,0.1,2.4,0.2c0-1.3,0-4.4,1.1-7.8l0.1-1.1c0,0,6.1-18.1,23.5-19.2c0.6-0.1,1.5-0.1,2.4-0.1
		c23.7,0,130.4,13,130.4,13S256.3,73.4,288.8,72.8 M288.5,78.7c-11.6,0.3-22,5.3-30.6,14.7c-7.1,7.5-10.6,15-10.6,15.1l-1.8,3.9
		l-4.2-0.5c-1.1-0.2-106.7-13-129.7-13c-0.9,0-1.6,0.1-2.1,0.1c-11.9,0.8-17.1,12-18.2,14.7v0.4l-0.1,0.6l-0.2,0.6
		c-0.9,2.7-0.9,5-0.9,5.9l0.1,6.6l-6.6-0.6l-2.4-0.2h-0.1H81c0,0-1.3-0.2-3.2-0.2c-6.4,0-17.5,1.6-21.5,12.4l-0.2,0.5l-0.3,0.5
		c-1.4,2.4-2.1,4.9-2.4,6.6c0,0.2-0.1,0.4-0.1,0.6c0,0.2-0.1,0.4-0.1,0.6c-0.1,0.1-0.1,0.3-0.1,0.5s0,0.3,0,0.5c0,0.1,0,0.2,0,0.4
		v0.2l3.9,22.1v0.1v0.1c2.4,17.6,6.8,42.3,13,73.4v0.1v0.1l18.1,102.6l212.2,55.8l0,0l0,0l75,20.9c0.1,0,0.2-0.1,0.3-0.1
		s0.2-0.1,0.4-0.2l0.1-0.1c0.8-0.5,1.4-1.3,1.9-2.4l0.5-1.1l0,0v-0.4l0.1-0.4c0.2-1,0.2-1.7,0.2-1.7v-0.2v-0.3l0.9-13.1
		c4-52.7,17-227.5,17-263.1c0-42.2-28.9-53.3-32.9-54.6L288.5,78.7L288.5,78.7z"/>
	<path style="fill:#C36400;" d="M85.8,136.7c0,0-3.3,90,1.1,104.8s155.8,119,157.4,121.2s136,56.5,136,56.5s18.1-233.1,18.1-274.8
		c0-48.3-36.8-58.7-36.8-58.7L287,77.5c-31.8,0.5-46.2,32.4-46.2,32.4s-113-13.7-130-12.6c-17,1-23,18.6-23,18.6L85.8,136.7z"/>
	
		<linearGradient id="SVGID_3_" gradientUnits="userSpaceOnUse" x1="92.6052" y1="262.6039" x2="403.2" y2="262.6039" gradientTransform="matrix(-1 0 0 -1 486 502)">
		<stop  offset="0" style="stop-color:#FFFF66"/>
		<stop  offset="1" style="stop-color:#FAC100"/>
	</linearGradient>
	<path style="fill:url(#SVGID_3_);" d="M294.7,374.3c3.2,2,77.5,20.7,77.5,20.7s15.5-192.5,20.7-239.6c5.2-47.1-32.3-63.9-32.3-63.9
		s-43.3-7.1-74.3-7.7c-31-0.6-43.3,33.6-43.3,33.6s-106.6-13.6-132.4-14.2s-23.9,22-23.9,22l-3.9,27.1
		C82.8,152.3,291.3,372.5,294.7,374.3z"/>
	
		<linearGradient id="SVGID_4_" gradientUnits="userSpaceOnUse" x1="104.7" y1="252.8559" x2="403.2" y2="252.8559" gradientTransform="matrix(-1 0 0 -1 486 502)">
		<stop  offset="0" style="stop-color:#EEA900"/>
		<stop  offset="0.467" style="stop-color:#FFFFFF"/>
		<stop  offset="1" style="stop-color:#EEA900"/>
	</linearGradient>
	<path style="opacity:0.51;fill:url(#SVGID_4_);enable-background:new    ;" d="M82.8,152.3c0,0,208.6,220.2,211.8,222.1
		c3.2,2,77.5,20.7,77.5,20.7s4.3-54.2,9.2-112.1c-17.4-55.2-59.7-129.7-162.8-168.6c-33.1-4.1-90-10.8-107.9-11.2
		c-25.8-0.6-23.9,22-23.9,22L82.8,152.3z"/>
	<path style="fill:#FFFFFF;" d="M255.5,97.5c6.3-4.8,14.4-8.3,24.5-8.1c31,0.6,74.3,7.7,74.3,7.7s37.5,16.8,32.3,63.9
		c-4.6,41.8-17.3,197.6-20.1,232.6c3.5,0.9,5.6,1.4,5.6,1.4s15.5-192.5,20.7-239.6c5.2-47.1-32.3-63.9-32.3-63.9s-43.3-7.1-74.3-7.7
		C272.5,83.6,262.4,90.1,255.5,97.5z M90.3,111.6c3.4-1.9,8-3.1,14.1-2.9c25.9,0.6,132.4,14.2,132.4,14.2l5.7-5.5
		c0,0-108.8-13.6-131.9-14.2C99.4,102.9,93.5,107,90.3,111.6z"/>
	<path style="fill:#C36400;" d="M378.6,398.8c0,0,0.3,3.3,1.5,14.3c1.1,10.8-8.2,12.4-8.2,12.4s-248.4-68.7-265.8-73.6
		S86,333.4,86,333.4S48.8,171.5,52.6,146s31.8-21.6,31.8-21.6s101,9.8,128.1,14.1s35.8,28.2,35.8,28.2s45.1,5.5,74.4,9.8
		c29.3,4.3,34.2,41.8,34.2,41.8L378.6,398.8"/>
	
		<linearGradient id="SVGID_5_" gradientUnits="userSpaceOnUse" x1="163.659" y1="320.9537" x2="302.6137" y2="192.2919" gradientTransform="matrix(-1 0 0 -1 486 502)">
		<stop  offset="0" style="stop-color:#FFFF66"/>
		<stop  offset="1" style="stop-color:#FAC100"/>
	</linearGradient>
	<path style="fill:url(#SVGID_5_);" d="M352.7,225.1c-6.9-45.6-41.3-45-41.3-45l-68.8-7.5c-5-29.4-35-30-35-30s-97-14.4-127.6-14.4
		c-30.7,0-29.4,24.4-29.4,24.4l35,197l287.6,75C373.2,424.6,359.5,270.8,352.7,225.1z"/>
	
		<linearGradient id="SVGID_6_" gradientUnits="userSpaceOnUse" x1="257.1948" y1="331.6157" x2="292.6501" y2="85.7159" gradientTransform="matrix(-1 0 0 -1 486 502)">
		<stop  offset="0" style="stop-color:#EEA900"/>
		<stop  offset="0.467" style="stop-color:#FFFFFF"/>
		<stop  offset="1" style="stop-color:#EEA900"/>
	</linearGradient>
	<path style="opacity:0.51;fill:url(#SVGID_6_);enable-background:new    ;" d="M85.6,349.5l287.6,75c0,0-1.2-13-3-32.6
		c-17.8-40.6-51.1-102.7-95.7-124.6c-66.4-32.6-163.1-27.8-199.2-138.9c-25.8,2.4-24.7,24.2-24.7,24.2L85.6,349.5z"/>
	<path style="fill:#FFFFFF;" d="M365.7,372.3l7.3,47.3c0,0-13.5-148.8-20.4-194.4s-41.3-45-41.3-45l-68.8-7.5c-5-29.4-35-30-35-30
		s-97-14.4-127.6-14.4c-14.4,0-21.7,5.3-25.5,11c4.4-3.8,11.1-6.7,21.7-6.7c30.7,0,127.6,14.4,127.6,14.4s30,0.6,35,30l68.8,7.5
		c0,0,34.4-0.6,41.3,45C354.9,270,363.1,344.5,365.7,372.3z"/>
	<g>
		<path style="fill:#CCB34E;" d="M215.8,197.2c0.8,11.2-7,19.1-17.2,17.4L96,197.9c-10.2-1.7-19.7-12.1-21.2-23.2l-1.2-9.5
			c-1.4-11.1,5.8-19,16-17.6l105.6,14.7c10.2,1.4,19.2,11.8,19.9,23L215.8,197.2z"/>
	</g>
	<g>
		
			<linearGradient id="SVGID_7_" gradientUnits="userSpaceOnUse" x1="317.8582" y1="308.844" x2="374.3161" y2="275.1516" gradientTransform="matrix(-0.9996 -2.820000e-02 2.820000e-02 -0.9996 468.7264 490.1744)">
			<stop  offset="0" style="stop-color:#FFFFFF"/>
			<stop  offset="1" style="stop-color:#EAE4C9"/>
		</linearGradient>
		<path style="fill:url(#SVGID_7_);" d="M212.3,195.5c0.7,10-6.6,16.9-16.3,15.4l-97.4-15c-9.7-1.5-18.8-10.8-20.2-20.7l-1.2-8.4
			c-1.4-9.9,5.4-16.9,15.1-15.6l100.3,13.3c9.7,1.3,18.2,10.5,18.9,20.5L212.3,195.5z"/>
	</g>
	<defs>
		<filter id="Adobe_OpacityMaskFilter" filterUnits="userSpaceOnUse" x="355.7" y="236" width="37" height="189.4">
			<feColorMatrix  type="matrix" values="1 0 0 0 0  0 1 0 0 0  0 0 1 0 0  0 0 0 1 0"/>
		</filter>
	</defs>
	<mask maskUnits="userSpaceOnUse" x="355.7" y="236" width="37" height="189.4" id="SVGID_1_">
		<g style="filter:url(#Adobe_OpacityMaskFilter);">
			
				<linearGradient id="SVGID_8_" gradientUnits="userSpaceOnUse" x1="117.5369" y1="124.6533" x2="112.3677" y2="235.7941" gradientTransform="matrix(-1 0 0 -1 486 502)">
				<stop  offset="0" style="stop-color:#FFFFFF"/>
				<stop  offset="1" style="stop-color:#000000"/>
			</linearGradient>
			<path style="fill:url(#SVGID_8_);" d="M380.8,413.1l11.9-174.5L385,236l-10.4,128.1l-11.9-97l-7,2.3l15.9,154.3l0.2,1.7
				C381,423.3,380.8,413.1,380.8,413.1z"/>
		</g>
	</mask>
	<path style="mask:url(#SVGID_1_);fill:#EEA900;" d="M380.8,413.1l11.9-174.5L385,236l-10.4,128.1l-11.9-97l-7,2.3l15.9,154.3
		l0.2,1.7C381,423.3,380.8,413.1,380.8,413.1z"/>
</g>
</svg>
