<svg xmlns="http://www.w3.org/2000/svg" xmlns:xlink="http://www.w3.org/1999/xlink" version="1.1"  x="0px" y="0px" width="32" height="32" viewBox="0 0 64 64" style="enable-background:new 0 0 64 64;" xml:space="preserve" viewbox="0 0 32 32">

<g>
	<path class="stshockcolor" d="M14,53h6v3h-6V53z M44,53h6l-0.017,3H44V53z" style="fill:#47475E;;" data-st="fill:#47475E;;"></path>
	<g class="st5" style="opacity:0.3;;">
		<path class="st3" d="M14,53h6v3h-6V53z M44,53h6l-0.017,3H44V53z" style="fill:#231F20;;"></path>
	</g>
</g>
<path class="stshockcolor" d="M12.285,8h39.43C53.529,8,55,9.471,55,11.286v39.429C55,52.528,53.529,54,51.715,54h-39.43  C10.472,54,9,52.528,9,50.715V11.286C9,9.471,10.472,8,12.285,8z" style="fill:#47475E;;" data-st="fill:#47475E;;"></path>
<g>
	<path class="st8" d="M16.167,12h31.667C49.417,12,51,13.583,51,15.167v31.667C51,48.416,49.417,50,47.833,50H16.167   C14.583,50,13,48.416,13,46.834V15.167C13,13.583,14.583,12,16.167,12z" style="opacity:0.6;fill:#231F20;;"></path>
</g>
<g>
	<defs>
		<path id="57229582_SVGID_1__grid" d="M16.545,14h30.909C48.081,14,49,14.92,49,15.545v30.91C49,47.083,48.081,48,47.454,48H16.545    C15.92,48,15,47.083,15,46.455v-30.91C15,14.92,15.92,14,16.545,14z"></path>
	</defs>
	<use xlink:href="#57229582_SVGID_1__grid" class="stshockcolor" style="fill:#47475E;;overflow:visible;" data-st="fill:#47475E;;"></use>
	<clipPath id="57229582_SVGID_2__grid">
		<use xlink:href="#57229582_SVGID_1__grid" style="overflow:visible;"></use>
	</clipPath>
	<g class="st4" style="clip-path:url(#57229582_SVGID_2__grid);;">
		<g>
			<polygon class="st9" points="49,48 49,30.123 47.195,26.999 36.79,33.002 45.456,48    " style="opacity:0.3;fill:#231F20;;"></polygon>
		</g>
		<polygon class="st2" points="15,31.258 45.375,14 15,14   " style="opacity:0.15;fill:#FFFFFF;;"></polygon>
	</g>
</g>
<g>
	<defs>
		<path id="57229582_SVGID_3__grid" d="M41.998,24C45.313,24,48,26.686,48,29.999C48,33.313,45.313,36,41.998,36C38.687,36,36,33.313,36,29.999    C36,26.686,38.687,24,41.998,24z"></path>
	</defs>
	<use xlink:href="#57229582_SVGID_3__grid" style="overflow:visible;fill-rule:evenodd;clip-rule:evenodd;fill:#93C1CF;"></use>
	<clipPath id="57229582_SVGID_4__grid">
		<use xlink:href="#57229582_SVGID_3__grid" style="overflow:visible;"></use>
	</clipPath>
	<g class="st1" style="opacity:0.3;clip-path:url(#57229582_SVGID_4__grid);;">
		<polygon class="st3" points="40.846,36 50.082,36 45.464,28 38.536,32   " style="fill:#231F20;;"></polygon>
		<g>
			<circle class="st6" cx="41.999" cy="30" r="4" style="fill:#FFFFFF;;"></circle>
		</g>
	</g>
</g>
<path class="st7" d="M42.001,37C43.104,37,44,42.761,44,44.312C44,45.866,43.104,46,42.001,46C40.896,46,40,45.866,40,44.312  C40,42.761,40.896,37,42.001,37z" style="fill-rule:evenodd;clip-rule:evenodd;fill:#93C1CF;;"></path>
</svg>