<svg xmlns="http://www.w3.org/2000/svg" xmlns:xlink="http://www.w3.org/1999/xlink" version="1.1"  x="0px" y="0px" width="32" height="32" viewBox="0 0 24 24" style="enable-background:new 0 0 24 24;" xml:space="preserve" viewbox="0 0 32 32">

<rect class="st1" width="24" height="24" style="fill:none;;"></rect>
<path id="58344585_shock_x5F_color" class="stshockcolor" d="M22,5c0-2-2-2-2-2s-2,0-4,0s-2,2-2,2h-2c-2,0-3,3-3,3H5H2c0,1.14,0.2,2.12,0.56,2.96  C4.65,16,12,16,12,16s0,1,0,3s2,2,2,2h6c2,0,2-2,2-2s-0.696-6.957-1.508-10.425C21.315,7.361,22,5.954,22,5z" style="fill:#8D6E63;;" data-st="fill:#8D6E63;;"></path>
<path class="st3" d="M12,16c0,0-7.35,0-9.44-5.04C2.2,10.12,2,9.14,2,8h7C9,8,12,10,12,16z" style="opacity:0.1;fill:#FFFFFF;;"></path>
<path class="st2" d="M14,5c0,0,0-2,2-2s4,0,4,0s2,0,2,2s-3,6-4,6S14,7,14,5z M5,8c0,0,0,2.61-2.44,2.96C2.2,10.12,2,9.14,2,8H5z   M13,8c0-0.552-0.448-1-1-1s-1,0.448-1,1s0.448,1,1,1S13,8.552,13,8z" style="opacity:0.65;fill:#3E2723;;"></path>
</svg>